HIERARCHY
ROOT hip
{
  OFFSET 0 0 0
  CHANNELS 6 Xposition Yposition Zposition Zrotation Yrotation Xrotation
  JOINT abdomen
  {
    OFFSET 0 20.6881 -0.73152
    CHANNELS 3 Zrotation Xrotation Yrotation
    JOINT chest
    {
      OFFSET 0 11.7043 -0.48768
      CHANNELS 3 Zrotation Xrotation Yrotation
      JOINT neck
      {
        OFFSET 0 22.1894 -2.19456
        CHANNELS 3 Zrotation Xrotation Yrotation
        JOINT head
        {
          OFFSET -0.24384 7.07133 1.2192
          CHANNELS 3 Zrotation Xrotation Yrotation
          JOINT leftEye
          {
            OFFSET 4.14528 8.04674 8.04672
            CHANNELS 3 Zrotation Xrotation Yrotation
            End Site
            {
              OFFSET 1 0 0
            }
          }
          JOINT rightEye
          {
            OFFSET -3.6576 8.04674 8.04672
            CHANNELS 3 Zrotation Xrotation Yrotation
            End Site
            {
              OFFSET 1 0 0
            }
          }
        }
      }
      JOINT rCollar
      {
        OFFSET -2.68224 19.2634 -4.8768
        CHANNELS 3 Zrotation Xrotation Yrotation
        JOINT rShldr
        {
          OFFSET -8.77824 -1.95073 1.46304
          CHANNELS 3 Zrotation Xrotation Yrotation
          JOINT rForeArm
          {
            OFFSET -28.1742 -1.7115 0.48768
            CHANNELS 3 Zrotation Xrotation Yrotation
            JOINT rHand
            {
              OFFSET -22.5879 0.773209 7.07136
              CHANNELS 3 Zrotation Xrotation Yrotation
              JOINT rThumb1
              {
                OFFSET -1.2192 -0.487915 3.41376
                CHANNELS 3 Zrotation Xrotation Yrotation
                JOINT rThumb2
                {
                  OFFSET -3.37035 -0.52449 3.41376
                  CHANNELS 3 Zrotation Xrotation Yrotation
                  End Site
                  {
                    OFFSET -1.78271 -1.18214 1.43049
                  }
                }
              }
              JOINT rIndex1
              {
                OFFSET -7.75947 0.938293 5.60832
                CHANNELS 3 Zrotation Xrotation Yrotation
                JOINT rIndex2
                {
                  OFFSET -2.54057 -0.884171 1.56538
                  CHANNELS 3 Zrotation Xrotation Yrotation
                  End Site
                  {
                    OFFSET -1.62519 -0.234802 1.16502
                  }
                }
              }
              JOINT rMid1
              {
                OFFSET -8.24714 1.18213 3.41376
                CHANNELS 3 Zrotation Xrotation Yrotation
                JOINT rMid2
                {
                  OFFSET -3.10165 -0.590103 1.0647
                  CHANNELS 3 Zrotation Xrotation Yrotation
                  End Site
                  {
                    OFFSET -2.48547 -0.328903 0.83742
                  }
                }
              }
              JOINT rRing1
              {
                OFFSET -8.82822 0.546677 1.51678
                CHANNELS 3 Zrotation Xrotation Yrotation
                JOINT rRing2
                {
                  OFFSET -2.60934 -0.819778 -0.0198488
                  CHANNELS 3 Zrotation Xrotation Yrotation
                  End Site
                  {
                    OFFSET -2.33842 -0.294052 0.168128
                  }
                }
              }
              JOINT rPinky1
              {
                OFFSET -8.27202 -0.0477905 -0.4584
                CHANNELS 3 Zrotation Xrotation Yrotation
                JOINT rPinky2
                {
                  OFFSET -1.82734 -0.647385 -0.700984
                  CHANNELS 3 Zrotation Xrotation Yrotation
                  End Site
                  {
                    OFFSET -1.69225 -0.51767 -0.607171
                  }
                }
              }
            }
          }
        }
      }
      JOINT lCollar
      {
        OFFSET 2.68224 19.2634 -4.8768
        CHANNELS 3 Zrotation Xrotation Yrotation
        JOINT lShldr
        {
          OFFSET 8.77824 -1.95073 1.46304
          CHANNELS 3 Zrotation Xrotation Yrotation
          JOINT lForeArm
          {
            OFFSET 28.1742 -1.7115 0.48768
            CHANNELS 3 Zrotation Xrotation Yrotation
            JOINT lHand
            {
              OFFSET 22.5879 0.773209 7.07136
              CHANNELS 3 Zrotation Xrotation Yrotation
              JOINT lThumb1
              {
                OFFSET 1.2192 -0.487915 3.41376
                CHANNELS 3 Zrotation Xrotation Yrotation
                JOINT lThumb2
                {
                  OFFSET 3.37035 -0.52449 3.41376
                  CHANNELS 3 Zrotation Xrotation Yrotation
                  End Site
                  {
                    OFFSET 1.78271 -1.18214 1.43049
                  }
                }
              }
              JOINT lIndex1
              {
                OFFSET 7.75947 0.938293 5.60832
                CHANNELS 3 Zrotation Xrotation Yrotation
                JOINT lIndex2
                {
                  OFFSET 2.54057 -0.884171 1.56538
                  CHANNELS 3 Zrotation Xrotation Yrotation
                  End Site
                  {
                    OFFSET 1.62519 -0.234802 1.16502
                  }
                }
              }
              JOINT lMid1
              {
                OFFSET 8.24714 1.18213 3.41376
                CHANNELS 3 Zrotation Xrotation Yrotation
                JOINT lMid2
                {
                  OFFSET 3.10165 -0.590103 1.0647
                  CHANNELS 3 Zrotation Xrotation Yrotation
                  End Site
                  {
                    OFFSET 2.48547 -0.328903 0.83742
                  }
                }
              }
              JOINT lRing1
              {
                OFFSET 8.82822 0.546677 1.51678
                CHANNELS 3 Zrotation Xrotation Yrotation
                JOINT lRing2
                {
                  OFFSET 2.60934 -0.819778 -0.0198488
                  CHANNELS 3 Zrotation Xrotation Yrotation
                  End Site
                  {
                    OFFSET 2.33842 -0.294052 0.168128
                  }
                }
              }
              JOINT lPinky1
              {
                OFFSET 8.27202 -0.0477905 -0.4584
                CHANNELS 3 Zrotation Xrotation Yrotation
                JOINT lPinky2
                {
                  OFFSET 1.82734 -0.647385 -0.700984
                  CHANNELS 3 Zrotation Xrotation Yrotation
                  End Site
                  {
                    OFFSET 1.69225 -0.51767 -0.607171
                  }
                }
              }
            }
          }
        }
      }
    }
  }
  JOINT rButtock
  {
    OFFSET -8.77824 4.35084 1.2192
    CHANNELS 3 Zrotation Xrotation Yrotation
    JOINT rThigh
    {
      OFFSET 0 -1.70687 -2.19456
      CHANNELS 3 Zrotation Xrotation Yrotation
      JOINT rShin
      {
        OFFSET 0 -36.8199 0.73152
        CHANNELS 3 Zrotation Xrotation Yrotation
        JOINT rFoot
        {
          OFFSET 0.73152 -45.1104 -5.12064
          CHANNELS 3 Zrotation Xrotation Yrotation
          End Site
          {
            OFFSET -1.1221 -3.69964 12.103
          }
        }
      }
    }
  }
  JOINT lButtock
  {
    OFFSET 8.77824 4.35084 1.2192
    CHANNELS 3 Zrotation Xrotation Yrotation
    JOINT lThigh
    {
      OFFSET 0 -1.70687 -2.19456
      CHANNELS 3 Zrotation Xrotation Yrotation
      JOINT lShin
      {
        OFFSET 0 -36.8199 0.73152
        CHANNELS 3 Zrotation Xrotation Yrotation
        JOINT lFoot
        {
          OFFSET -0.73152 -45.1104 -5.12064
          CHANNELS 3 Zrotation Xrotation Yrotation
          End Site
          {
            OFFSET 1.1221 -3.69964 12.103
          }
        }
      }
    }
  }
}
MOTION
Frames:	4
Frame Time:	0.03333
-0.02872991008318926 35.70476949001205 0.08403890101188811 -2.840048313140869 6.511999607086182 4.697662830352783 -2.4506847858428955 14.833097457885742 3.8078455924987793 2.707535982131958 -9.65082836151123 1.1613274812698364 -5.001632213592529 15.586488723754883 -3.4496841430664062 8.974514961242676 -26.28059959411621 -5.055346965789795 0.0033781088422983885 -0.02136988565325737 -0.00808404665440321 0.008647565729916096 0.007020354270935059 0.008661090396344662 0.010561687871813774 -0.035879332572221756 -0.02217697910964489 46.565792083740234 35.84934997558594 17.502178192138672 -28.122331619262695 -31.878643035888672 62.413307189941406 -1.5213916301727295 -10.713862419128418 -1.4502005577087402 0.009523018263280392 -0.011893756687641144 0.007903819903731346 -0.002480472670868039 0.035478752106428146 0.02098250575363636 -0.002665397245436907 -0.010534168221056461 0.004485954996198416 7.714963912963867 5.463587284088135 0.41133978962898254 -0.01078703161329031 0.021435702219605446 -0.011646793223917484 2.9368786811828613 0.9910679459571838 0.08440880477428436 -0.002932613017037511 0.010870033875107765 -0.02283598855137825 10.294166564941406 0.738900363445282 0.03920425847172737 0.00500843208283186 0.030930805951356888 -0.03160466253757477 2.20857834815979 -0.7639756798744202 -0.23041068017482758 -0.02983207069337368 0.009164037182927132 0.00028624775586649776 -52.352294921875 39.33382034301758 -29.507753372192383 27.484634399414062 -30.461572647094727 -58.780967712402344 1.8943732976913452 -14.131376266479492 1.9941436052322388 -0.0032199695706367493 0.006985908839851618 -0.004522722214460373 -0.04960475489497185 -0.00297241541557014 -0.00116741843521595 0.022395314648747444 -0.002517531393095851 0.04049539566040039 -7.716006278991699 5.483649730682373 -0.4292529821395874 -0.008212687447667122 -0.002434945898130536 0.004625554196536541 -2.926056146621704 0.9731115102767944 -0.12903255224227905 0.0011108525795862079 -0.018732568249106407 0.008932123892009258 -10.278056144714355 0.7566190958023071 -0.04745537042617798 -0.007288254331797361 -0.031136663630604744 -0.004231343977153301 -2.1764800548553467 -0.7018244862556458 0.1875356286764145 -0.016146261245012283 -0.003940905909985304 -0.010083552449941635 -27.752704620361328 -38.79243469238281 -23.511274337768555 -1.699013352394104 65.130126953125 2.748291492462158 -4.699843406677246 -10.48472785949707 -10.185357093811035 0.032859187573194504 -0.007984308525919914 0.015562738291919231 32.89000701904297 -37.53403854370117 25.981964111328125 1.8051044940948486 65.69237518310547 -2.983517646789551 5.116311073303223 -10.484332084655762 13.819500923156738
-0.09138035385366013 35.671680638577925 0.25301037725966496 -2.8631508350372314 6.3574628829956055 4.799411773681641 -2.4784116744995117 14.856159210205078 3.8142778873443604 2.6922388076782227 -9.709879875183105 1.1547092199325562 -4.953896999359131 15.680388450622559 -3.3744354248046875 8.995807647705078 -26.327396392822266 -5.020677089691162 0.006683164741843939 -0.037193529307842255 0.006646588910371065 0.04558029770851135 0.009951557964086533 0.010370765812695026 0.02563043124973774 -0.04040810465812683 -0.057109761983156204 46.603397369384766 35.750118255615234 17.293516159057617 -28.14276695251465 -31.84105682373047 62.17456817626953 -1.4831262826919556 -10.40338134765625 -1.4530774354934692 0.008558501489460468 -0.020920827984809875 0.04800928384065628 0.01841985248029232 0.02368868887424469 0.008036592975258827 -0.026443883776664734 -0.014819658361375332 0.019724350422620773 7.724264144897461 5.444177150726318 0.36980631947517395 -0.009032972157001495 0.06561601907014847 -0.02899278700351715 2.9497005939483643 0.9944077134132385 0.04967088997364044 0.025127707049250603 0.053530529141426086 -0.04989305138587952 10.38359260559082 0.7495218515396118 0.039290640503168106 -0.00385433342307806 0.004425386432558298 -0.06396425515413284 2.184265613555908 -0.7915915250778198 -0.28594157099723816 -0.06085679680109024 -0.004429580643773079 0.044130198657512665 -52.498050689697266 39.25044631958008 -29.346052169799805 27.4974308013916 -30.53350830078125 -58.56089782714844 1.9702012538909912 -14.178733825683594 2.0021636486053467 0.004132383968681097 0.00035058645880781114 -0.025993958115577698 -0.12733489274978638 -0.029587022960186005 0.030432099476456642 0.011138337664306164 0.00785291288048029 0.02979378029704094 -7.737511157989502 5.518825054168701 -0.39808616042137146 -0.015652883797883987 0.0006262487731873989 0.014438129961490631 -2.9233224391937256 0.9922095537185669 -0.15739034116268158 0.043514449149370193 -0.025835752487182617 0.03420098125934601 -10.292254447937012 0.7674379944801331 -0.03368954360485077 -0.07205459475517273 -0.018238941207528114 -0.034525103867053986 -2.1311581134796143 -0.6501381397247314 0.18780310451984406 -0.06566474586725235 0.004899027291685343 -0.027244430035352707 -27.790205001831055 -38.774879455566406 -23.554725646972656 -1.5724635124206543 65.07925415039062 2.5683109760284424 -4.602219581604004 -10.364482879638672 -10.129106521606445 0.07775496691465378 -0.00037355298991315067 0.033650849014520645 32.868900299072266 -37.44519805908203 25.79372215270996 1.8289477825164795 65.61631774902344 -2.9961838722229004 5.097225189208984 -10.522363662719727 13.74482536315918
-0.1334052271562792 34.265095386567594 1.218372345798048 1.1603957414627075 -4.7189130783081055 11.847665786743164 -7.131221771240234 18.312410354614258 4.77731466293335 3.870178699493408 -12.666963577270508 1.1635386943817139 -4.672890663146973 13.906553268432617 -2.8372130393981934 7.818144798278809 -32.340301513671875 -2.957273244857788 0.10770414024591446 0.1373041421175003 -0.28825223445892334 -0.055935610085725784 -0.13343138992786407 0.19472691416740417 -0.5726895332336426 -0.5924761295318604 0.2734833061695099 0.43339473009109497 25.14412498474121 83.15811920166016 -29.250764846801758 -36.95808029174805 73.68609619140625 -2.2017602920532227 -35.26152420043945 -5.003660678863525 -0.12434398382902145 -0.38932034373283386 -0.20382797718048096 0.27500152587890625 0.19102264940738678 0.17417989671230316 0.04352521896362305 0.39842841029167175 -0.4089769721031189 8.007678031921387 6.060328960418701 0.3922913074493408 0.09838543087244034 -0.05074038356542587 -0.1775003969669342 3.2986433506011963 0.8161872625350952 -0.11530295014381409 -0.19131173193454742 0.008195865899324417 0.0007670170161873102 10.25626277923584 0.6914238333702087 -0.015251155011355877 -0.5892432928085327 0.0503590852022171 -0.5378047823905945 2.550564765930176 -1.0776208639144897 0.02120109274983406 0.1039467304944992 0.3885749876499176 0.09937365353107452 -24.07847023010254 22.131853103637695 -84.55343627929688 17.13800048828125 -11.587739944458008 -32.74069595336914 1.242125391960144 30.155580520629883 -4.6113409996032715 0.06782691180706024 -0.3006885349750519 -0.028507964685559273 -0.3182583451271057 0.1610695868730545 0.22346897423267365 0.008693929761648178 0.3875584304332733 0.5028202533721924 -7.606192111968994 5.720114231109619 0.1010521799325943 0.09649316966533661 -0.45809435844421387 0.7262787818908691 -2.856996774673462 1.002083420753479 -0.32582470774650574 0.6899582743644714 0.1406559944152832 -0.14150844514369965 -10.22181224822998 0.8190279006958008 0.03365461900830269 -0.4994097352027893 0.051663052290678024 -0.2995867133140564 -2.187096118927002 -1.0582479238510132 0.18454675376415253 -0.31752800941467285 0.26508620381355286 -0.1712033897638321 -27.448068618774414 -57.4490852355957 -35.020511627197266 -169.498046875 87.65264129638672 170.51800537109375 -4.677754878997803 -7.776998996734619 -16.037813186645508 -0.0827927216887474 0.35630539059638977 -0.007690218277275562 16.846261978149414 -48.059967041015625 28.11088752746582 5.009748458862305 81.95801544189453 -6.526494979858398 8.498257637023926 -11.93608283996582 23.9273738861084
-0.8880991888123161 32.855426304147 1.9805432301611332 0.8566564917564392 0.46815553307533264 9.399129867553711 -9.157629013061523 17.240957260131836 3.5584781169891357 4.232673645019531 -11.833033561706543 1.5803521871566772 -5.04368782043457 13.562871932983398 -5.205785274505615 8.46890926361084 -31.577444076538086 -5.232661724090576 -0.5514956712722778 -0.08608468621969223 0.3518533706665039 -0.8623526096343994 0.25126713514328003 -0.33513176441192627 -0.5066891312599182 0.37085843086242676 0.30449309945106506 -4.196678638458252 16.030332565307617 88.68213653564453 -28.487401962280273 -38.31503677368164 78.47672271728516 -0.7735307216644287 -18.77007484436035 -2.2473514080047607 0.12039043009281158 -0.566419780254364 0.7258361577987671 0.17091064155101776 0.3717685341835022 -0.0964711606502533 0.059314560145139694 0.024037597700953484 -0.2032157927751541 8.315213203430176 6.088250160217285 -0.12388058751821518 0.3072068393230438 0.22620920836925507 -0.2646777629852295 2.952266216278076 0.7173746824264526 0.7541452646255493 0.20369043946266174 -0.09324903786182404 -0.17223656177520752 10.133182525634766 0.787577748298645 0.21618062257766724 -0.8228839039802551 -0.19124101102352142 -0.14279302954673767 1.7439347505569458 -1.7973238229751587 -0.0455944687128067 0.21578973531723022 0.3424597382545471 1.0022982358932495 -30.467744827270508 29.74128532409668 -83.52806091308594 15.639920234680176 -8.082777976989746 -27.808866500854492 1.7557828426361084 33.62303924560547 -5.219647407531738 0.19808639585971832 -0.17045079171657562 -0.370230495929718 -0.3230561912059784 0.2931312322616577 0.26254209876060486 -0.111350417137146 0.08607221394777298 -0.4911816716194153 -7.415895462036133 5.880861759185791 -0.3167625665664673 0.1344524323940277 -0.24911488592624664 0.358094722032547 -2.9188883304595947 1.4758672714233398 -0.2866552770137787 0.25283730030059814 0.7026464939117432 -0.41899412870407104 -10.172464370727539 0.6859840750694275 0.5961337685585022 -0.9742243885993958 -0.7230628728866577 -0.5419885516166687 -1.718312382698059 -0.9988512992858887 0.9638581275939941 0.4457641839981079 -0.31200388073921204 -0.3397476375102997 -32.29554748535156 -57.30064010620117 -40.86886215209961 -164.73721313476562 85.42350006103516 165.99240112304688 -4.513997554779053 -6.495047569274902 -13.91871452331543 0.28933435678482056 0.11496629565954208 0.7789016366004944 18.335227966308594 -45.38301086425781 31.33323097229004 3.145681619644165 81.75137329101562 -4.678517818450928 8.675639152526855 -13.920318603515625 22.411182403564453
